<svg width="31" height="30" viewBox="0 0 31 30" fill="none" xmlns="http://www.w3.org/2000/svg">
<path d="M23.5618 5.19C23.2058 5.19 22.8577 5.29557 22.5617 5.49335C22.2657 5.69114 22.035 5.97226 21.8988 6.30117C21.7625 6.63008 21.7269 6.992 21.7963 7.34116C21.8658 7.69033 22.0372 8.01106 22.289 8.26279C22.5407 8.51453 22.8614 8.68596 23.2106 8.75541C23.5598 8.82487 23.9217 8.78922 24.2506 8.65298C24.5795 8.51674 24.8606 8.28603 25.0584 7.99003C25.2562 7.69402 25.3618 7.34601 25.3618 6.99C25.3618 6.51261 25.1721 6.05477 24.8345 5.71721C24.497 5.37964 24.0391 5.19 23.5618 5.19ZM30.4618 8.82C30.4326 7.57545 30.1995 6.3441 29.7718 5.175C29.3904 4.1747 28.7967 3.26892 28.0318 2.52C27.289 1.75114 26.3811 1.16126 25.3768 0.795C24.2107 0.354241 22.978 0.115815 21.7318 0.0899999C20.1418 -8.19564e-08 19.6318 0 15.5518 0C11.4718 0 10.9618 -8.19564e-08 9.37176 0.0899999C8.12549 0.115815 6.89277 0.354241 5.72676 0.795C4.72427 1.16497 3.81716 1.75434 3.07176 2.52C2.3029 3.26277 1.71302 4.17066 1.34676 5.175C0.905999 6.34101 0.667573 7.57373 0.641758 8.82C0.551758 10.41 0.551758 10.92 0.551758 15C0.551758 19.08 0.551758 19.59 0.641758 21.18C0.667573 22.4263 0.905999 23.659 1.34676 24.825C1.71302 25.8293 2.3029 26.7372 3.07176 27.48C3.81716 28.2457 4.72427 28.835 5.72676 29.205C6.89277 29.6458 8.12549 29.8842 9.37176 29.91C10.9618 30 11.4718 30 15.5518 30C19.6318 30 20.1418 30 21.7318 29.91C22.978 29.8842 24.2107 29.6458 25.3768 29.205C26.3811 28.8387 27.289 28.2489 28.0318 27.48C28.8001 26.7339 29.3943 25.8273 29.7718 24.825C30.1995 23.6559 30.4326 22.4246 30.4618 21.18C30.4618 19.59 30.5518 19.08 30.5518 15C30.5518 10.92 30.5518 10.41 30.4618 8.82ZM27.7618 21C27.7508 21.9522 27.5784 22.8956 27.2518 23.79C27.0123 24.4428 26.6276 25.0326 26.1268 25.515C25.6402 26.0108 25.0516 26.3946 24.4018 26.64C23.5073 26.9666 22.5639 27.1391 21.6118 27.15C20.1118 27.225 19.5568 27.24 15.6118 27.24C11.6668 27.24 11.1118 27.24 9.61176 27.15C8.62309 27.1685 7.63865 27.0163 6.70176 26.7C6.08043 26.4421 5.51879 26.0592 5.05176 25.575C4.55389 25.0931 4.17402 24.5028 3.94176 23.85C3.57554 22.9427 3.37242 21.9779 3.34176 21C3.34176 19.5 3.25176 18.945 3.25176 15C3.25176 11.055 3.25176 10.5 3.34176 9C3.34848 8.02658 3.52618 7.06192 3.86676 6.15C4.13083 5.51687 4.53616 4.95249 5.05176 4.5C5.50748 3.98425 6.07069 3.57464 6.70176 3.3C7.61608 2.97007 8.57975 2.79762 9.55176 2.79C11.0518 2.79 11.6068 2.7 15.5518 2.7C19.4968 2.7 20.0518 2.7 21.5518 2.79C22.5039 2.80092 23.4473 2.97337 24.3418 3.3C25.0234 3.55298 25.6352 3.96427 26.1268 4.5C26.6183 4.96077 27.0024 5.5241 27.2518 6.15C27.5851 7.0634 27.7577 8.02767 27.7618 9C27.8368 10.5 27.8518 11.055 27.8518 15C27.8518 18.945 27.8368 19.5 27.7618 21ZM15.5518 7.305C14.0305 7.30797 12.5442 7.76179 11.2807 8.60913C10.0173 9.45646 9.03333 10.6593 8.45321 12.0656C7.87309 13.472 7.72284 15.0187 8.02145 16.5104C8.32005 18.0021 9.05411 19.3718 10.1309 20.4465C11.2076 21.5211 12.5788 22.2525 14.071 22.5482C15.5633 22.8439 17.1098 22.6907 18.515 22.1078C19.9202 21.525 21.1211 20.5387 21.966 19.2736C22.8108 18.0084 23.2618 16.5213 23.2618 15C23.2637 13.9877 23.0656 12.9849 22.6786 12.0494C22.2917 11.114 21.7236 10.2642 21.0071 9.54908C20.2905 8.83394 19.4397 8.26752 18.5035 7.88239C17.5672 7.49727 16.5641 7.30104 15.5518 7.305ZM15.5518 19.995C14.5638 19.995 13.5981 19.702 12.7767 19.1532C11.9553 18.6043 11.315 17.8242 10.937 16.9115C10.5589 15.9988 10.46 14.9945 10.6527 14.0255C10.8455 13.0566 11.3212 12.1666 12.0198 11.468C12.7183 10.7694 13.6083 10.2937 14.5773 10.101C15.5462 9.90824 16.5505 10.0072 17.4633 10.3852C18.376 10.7633 19.1561 11.4035 19.7049 12.2249C20.2538 13.0463 20.5468 14.0121 20.5468 15C20.5468 15.656 20.4176 16.3055 20.1665 16.9115C19.9155 17.5175 19.5476 18.0682 19.0838 18.532C18.6199 18.9958 18.0693 19.3638 17.4633 19.6148C16.8572 19.8658 16.2077 19.995 15.5518 19.995Z" fill="white"/>
</svg>
