<svg width="50" height="55" viewBox="0 0 50 35" fill="none" xmlns="http://www.w3.org/2000/svg">
<path fill-rule="evenodd" clip-rule="evenodd" d="M47.875 3.3125C46.5187 0.9 45.0469 0.45625 42.05 0.2875C39.0563 0.084375 31.5281 0 25.0062 0C18.4719 0 10.9406 0.0843752 7.95 0.284375C4.95937 0.45625 3.48437 0.896875 2.11562 3.3125C0.71875 5.72187 0 9.87187 0 17.1781V17.2031C0 24.4781 0.71875 28.6594 2.11562 31.0438C3.48437 33.4563 4.95625 33.8938 7.94687 34.0969C10.9406 34.2719 18.4719 34.375 25.0062 34.375C31.5281 34.375 39.0562 34.2719 42.0531 34.1C45.05 33.8969 46.5219 33.4594 47.8781 31.0469C49.2875 28.6625 50 24.4812 50 17.2062V17.1813C50 9.87188 49.2875 5.72187 47.875 3.3125ZM18.75 26.5625V7.8125L34.375 17.1875L18.75 26.5625Z" fill="white"/>
</svg>
